# xmcd
#
# Track frame offsets:
#	150
#	19087
#	42824
#	66104
#	82354
#	105626
#	127437
#	152613
#	172953
#	194398
#
# Disc length: 2914 seconds
#
# Revision: 3
# Processed by: cddbd v1.5.2PL0 Copyright (c) Steve Scherf et al.
# Submitted via: EZCDAudioConverter 8.0.2.1
#
DISCID=870b600a
DTITLE=Hồ Hoàng Yến - Dù Tình Yêu Đã Mất
DYEAR=2013
DGENRE=Pop
TTITLE0=Dù Tình Yêu Đã Mất
TTITLE1=Nửa hồn thương đau
TTITLE2=Tương tư 4
TTITLE3=Buồn 
TTITLE4=Chuyện tình không suy tư
TTITLE5=Tình khúc buồn
TTITLE6=Bài không tên số 7
TTITLE7=Ngỡ như tình đã quên mình
TTITLE8=Mộng sầu
TTITLE9=Yêu
EXTD=
EXTT0=
EXTT1=
EXTT2=
EXTT3=
EXTT4=
EXTT5=
EXTT6=
EXTT7=
EXTT8=
EXTT9=
PLAYORDER=
